<svg width="24" height="24" viewBox="0 0 24 24" fill="none" xmlns="http://www.w3.org/2000/svg">
<path d="M12.0016 1.5C6.20315 1.5 1.50159 6.20156 1.50159 12C1.50159 16.2984 4.08909 19.9922 7.78752 21.6188C7.7594 20.8875 7.78284 20.0062 7.97034 19.2094C8.1719 18.3562 9.32034 13.4859 9.32034 13.4859C9.32034 13.4859 8.98284 12.8156 8.98284 11.8266C8.98284 10.2703 9.88284 9.10781 11.0078 9.10781C11.9641 9.10781 12.4235 9.825 12.4235 10.6828C12.4235 11.6437 11.8094 13.0781 11.4953 14.4094C11.2328 15.525 12.0531 16.4297 13.1547 16.4297C15.1422 16.4297 16.4828 13.875 16.4828 10.8469C16.4828 8.54531 14.9313 6.825 12.1141 6.825C8.93127 6.825 6.94377 9.20156 6.94377 11.8547C6.94377 12.7687 7.21565 13.4156 7.63752 13.9125C7.82971 14.1422 7.85784 14.2359 7.78752 14.4984C7.73596 14.6906 7.62346 15.1547 7.5719 15.3422C7.50159 15.6094 7.28596 15.7031 7.0469 15.6047C5.57971 15.0047 4.89534 13.4016 4.89534 11.5922C4.89534 8.61094 7.41252 5.03438 12.4 5.03438C16.4078 5.03438 19.0469 7.93594 19.0469 11.0484C19.0469 15.1687 16.7547 18.2438 13.3797 18.2438C12.2453 18.2438 11.1813 17.6297 10.8156 16.9359C10.8156 16.9359 10.2063 19.3547 10.075 19.8234C9.85471 20.6344 9.41877 21.4406 9.02034 22.0734C9.98685 22.3586 10.9892 22.5038 11.9969 22.5047C17.7953 22.5047 22.4969 17.8031 22.4969 12.0047C22.4969 6.20625 17.8 1.5 12.0016 1.5Z" fill="#4F4F4F"/>
</svg>
