<svg width="24" height="24" viewBox="0 0 24 24" fill="none" xmlns="http://www.w3.org/2000/svg">
<path d="M15 22.75H9C3.57 22.75 1.25 20.43 1.25 15V9C1.25 3.57 3.57 1.25 9 1.25H15C20.43 1.25 22.75 3.57 22.75 9V15C22.75 20.43 20.43 22.75 15 22.75ZM9 2.75C4.39 2.75 2.75 4.39 2.75 9V15C2.75 19.61 4.39 21.25 9 21.25H15C19.61 21.25 21.25 19.61 21.25 15V9C21.25 4.39 19.61 2.75 15 2.75H9Z" fill="#4F4F4F"/>
<path d="M13.26 16.2799C13.07 16.2799 12.88 16.2099 12.73 16.0599L9.20004 12.5299C8.91004 12.2399 8.91004 11.7599 9.20004 11.4699L12.73 7.93991C13.02 7.64991 13.5 7.64991 13.79 7.93991C14.08 8.22991 14.08 8.70991 13.79 8.99991L10.79 11.9999L13.79 14.9999C14.08 15.2899 14.08 15.7699 13.79 16.0599C13.65 16.2099 13.46 16.2799 13.26 16.2799Z" fill="#4F4F4F"/>
</svg>
