<svg width="24" height="24" viewBox="0 0 24 24" fill="none" xmlns="http://www.w3.org/2000/svg">
<path d="M12 22.75C6.07 22.75 1.25 17.93 1.25 12C1.25 6.07 6.07 1.25 12 1.25C17.93 1.25 22.75 6.07 22.75 12C22.75 17.93 17.93 22.75 12 22.75ZM12 2.75C6.9 2.75 2.75 6.9 2.75 12C2.75 17.1 6.9 21.25 12 21.25C17.1 21.25 21.25 17.1 21.25 12C21.25 6.9 17.1 2.75 12 2.75Z" fill="#4F4F4F"/>
<path d="M9.16999 15.5801C8.97999 15.5801 8.78999 15.5101 8.63999 15.3601C8.34999 15.0701 8.34999 14.5901 8.63999 14.3001L14.3 8.64011C14.59 8.35011 15.07 8.35011 15.36 8.64011C15.65 8.93011 15.65 9.41011 15.36 9.70011L9.69998 15.3601C9.55998 15.5101 9.35999 15.5801 9.16999 15.5801Z" fill="#4F4F4F"/>
<path d="M14.83 15.5801C14.64 15.5801 14.45 15.5101 14.3 15.3601L8.63999 9.70011C8.34999 9.41011 8.34999 8.93011 8.63999 8.64011C8.92999 8.35011 9.40998 8.35011 9.69998 8.64011L15.36 14.3001C15.65 14.5901 15.65 15.0701 15.36 15.3601C15.21 15.5101 15.02 15.5801 14.83 15.5801Z" fill="#4F4F4F"/>
</svg>
