<svg width="24" height="24" viewBox="0 0 24 24" fill="none" xmlns="http://www.w3.org/2000/svg">
<path d="M12 16.3299C9.61004 16.3299 7.67004 14.3899 7.67004 11.9999C7.67004 9.60992 9.61004 7.66992 12 7.66992C14.39 7.66992 16.33 9.60992 16.33 11.9999C16.33 14.3899 14.39 16.3299 12 16.3299ZM12 9.16992C10.44 9.16992 9.17004 10.4399 9.17004 11.9999C9.17004 13.5599 10.44 14.8299 12 14.8299C13.56 14.8299 14.83 13.5599 14.83 11.9999C14.83 10.4399 13.56 9.16992 12 9.16992Z" fill="#4F4F4F"/>
<path d="M12 21.02C8.23996 21.02 4.68996 18.82 2.24996 15C1.18996 13.35 1.18996 10.66 2.24996 8.99998C4.69996 5.17998 8.24996 2.97998 12 2.97998C15.75 2.97998 19.3 5.17998 21.74 8.99998C22.8 10.65 22.8 13.34 21.74 15C19.3 18.82 15.75 21.02 12 21.02ZM12 4.47998C8.76996 4.47998 5.67996 6.41998 3.51996 9.80998C2.76996 10.98 2.76996 13.02 3.51996 14.19C5.67996 17.58 8.76996 19.52 12 19.52C15.23 19.52 18.32 17.58 20.48 14.19C21.23 13.02 21.23 10.98 20.48 9.80998C18.32 6.41998 15.23 4.47998 12 4.47998Z" fill="#4F4F4F"/>
</svg>
