<svg width="24" height="24" viewBox="0 0 24 24" fill="none" xmlns="http://www.w3.org/2000/svg">
<path d="M21 6.72998C20.98 6.72998 20.95 6.72998 20.92 6.72998C15.63 6.19998 10.35 5.99998 5.12004 6.52998L3.08004 6.72998C2.66004 6.76998 2.29004 6.46998 2.25004 6.04998C2.21004 5.62998 2.51004 5.26998 2.92004 5.22998L4.96004 5.02998C10.28 4.48998 15.67 4.69998 21.07 5.22998C21.48 5.26998 21.78 5.63998 21.74 6.04998C21.71 6.43998 21.38 6.72998 21 6.72998Z" fill="#4F4F4F"/>
<path d="M8.50001 5.72C8.46001 5.72 8.42001 5.72 8.37001 5.71C7.97001 5.64 7.69001 5.25 7.76001 4.85L7.98001 3.54C8.14001 2.58 8.36001 1.25 10.69 1.25H13.31C15.65 1.25 15.87 2.63 16.02 3.55L16.24 4.85C16.31 5.26 16.03 5.65 15.63 5.71C15.22 5.78 14.83 5.5 14.77 5.1L14.55 3.8C14.41 2.93 14.38 2.76 13.32 2.76H10.7C9.64001 2.76 9.62001 2.9 9.47001 3.79L9.24001 5.09C9.18001 5.46 8.86001 5.72 8.50001 5.72Z" fill="#4F4F4F"/>
<path d="M15.21 22.7501H8.79002C5.30002 22.7501 5.16002 20.8201 5.05002 19.2601L4.40002 9.19007C4.37002 8.78007 4.69002 8.42008 5.10002 8.39008C5.52002 8.37008 5.87002 8.68008 5.90002 9.09008L6.55002 19.1601C6.66002 20.6801 6.70002 21.2501 8.79002 21.2501H15.21C17.31 21.2501 17.35 20.6801 17.45 19.1601L18.1 9.09008C18.13 8.68008 18.49 8.37008 18.9 8.39008C19.31 8.42008 19.63 8.77007 19.6 9.19007L18.95 19.2601C18.84 20.8201 18.7 22.7501 15.21 22.7501Z" fill="#4F4F4F"/>
<path d="M13.66 17.25H10.33C9.91996 17.25 9.57996 16.91 9.57996 16.5C9.57996 16.09 9.91996 15.75 10.33 15.75H13.66C14.07 15.75 14.41 16.09 14.41 16.5C14.41 16.91 14.07 17.25 13.66 17.25Z" fill="#4F4F4F"/>
<path d="M14.5 13.25H9.5C9.09 13.25 8.75 12.91 8.75 12.5C8.75 12.09 9.09 11.75 9.5 11.75H14.5C14.91 11.75 15.25 12.09 15.25 12.5C15.25 12.91 14.91 13.25 14.5 13.25Z" fill="#4F4F4F"/>
</svg>
